<svg width="800px" height="800px" viewBox="0 0 24 24" xmlns="http://www.w3.org/2000/svg">
	<g id="logo">
		<path d="M11.25 17C11.25 17.4142 11.5858 17.75 12 17.75C12.4142 17.75 12.75 17.4142 12.75 17H11.25ZM15.25 9.75C15.25 10.1642 15.5858 10.5 16 10.5C16.4142 10.5 16.75 10.1642 16.75 9.75H15.25ZM7.25 9.75C7.25 10.1642 7.58579 10.5 8 10.5C8.41421 10.5 8.75 10.1642 8.75 9.75H7.25ZM15.7071 7.32544L16.2646 6.82371V6.82371L15.7071 7.32544ZM9.5 16.25C9.08579 16.25 8.75 16.5858 8.75 17C8.75 17.4142 9.08579 17.75 9.5 17.75V16.25ZM15 17.75C15.4142 17.75 15.75 17.4142 15.75 17C15.75 16.5858 15.4142 16.25 15 16.25V17.75ZM10 7.75H12V6.25H10V7.75ZM12 7.75H14V6.25H12V7.75ZM12.75 17V7H11.25V17H12.75ZM15.25 9.22222V9.75H16.75V9.22222H15.25ZM7.25 9.22222V9.75H8.75V9.22222H7.25ZM14 7.75C14.4949 7.75 14.7824 7.75196 14.9865 7.78245C15.0783 7.79617 15.121 7.8118 15.1376 7.8194C15.148 7.82415 15.1477 7.82503 15.1496 7.82716L16.2646 6.82371C15.96 6.4853 15.579 6.35432 15.2081 6.29891C14.8676 6.24804 14.4479 6.25 14 6.25V7.75ZM16.75 9.22222C16.75 8.71757 16.7513 8.27109 16.708 7.91294C16.6629 7.54061 16.559 7.15082 16.2646 6.82371L15.1496 7.82716C15.1523 7.83015 15.1609 7.83939 15.1731 7.87221C15.1873 7.91048 15.2048 7.97725 15.2188 8.09313C15.2487 8.34011 15.25 8.67931 15.25 9.22222H16.75ZM10 6.25C9.55208 6.25 9.13244 6.24804 8.79192 6.29891C8.42102 6.35432 8.04 6.4853 7.73542 6.82371L8.85036 7.82716C8.85228 7.82503 8.85204 7.82415 8.86242 7.8194C8.87904 7.8118 8.92168 7.79617 9.01354 7.78245C9.21765 7.75196 9.50511 7.75 10 7.75V6.25ZM8.75 9.22222C8.75 8.67931 8.75129 8.34011 8.78118 8.09313C8.7952 7.97725 8.81273 7.91048 8.8269 7.87221C8.83905 7.83939 8.84767 7.83015 8.85036 7.82716L7.73542 6.82371C7.44103 7.15082 7.3371 7.54061 7.29204 7.91294C7.24871 8.27109 7.25 8.71757 7.25 9.22222H8.75ZM9.5 17.75H15V16.25H9.5V17.75Z" fill="#1C274C" />
		<path d="M22 12C22 16.714 22 19.0711 20.5355 20.5355C19.0711 22 16.714 22 12 22C7.28595 22 4.92893 22 3.46447 20.5355C2 19.0711 2 16.714 2 12C2 7.28595 2 4.92893 3.46447 3.46447C4.92893 2 7.28595 2 12 2C16.714 2 19.0711 2 20.5355 3.46447C21.5093 4.43821 21.8356 5.80655 21.9449 8" stroke="#1C274C" stroke-width="1.5" stroke-linecap="round" />
	</g>
	<g id="couple">
		<path d="M200,328h-16v-28.313c3.77-3.396,6.931-7.348,9.441-11.688H200c13.234,0,24-10.766,24-24c0-10.496-6.562-19.19-16-22.542   V216c0-26.51-21.49-48-48-48h-16c-26.51,0-48,21.49-48,48v25.474c-9.292,3.313-16,12.11-16,22.526c0,13.508,10.997,24,24,24h6.557   c2.51,4.342,5.673,8.294,9.443,11.685V328h-16c-17.68,0-32,14.32-32,32v64c0,8.8,7.2,16,16,16h16v-32c0-4.4,3.6-8,8-8s8,3.6,8,8v32   h64v-32c0-4.4,3.6-8,8-8s8,3.6,8,8v32h16c8.8,0,16-7.2,16-16v-64C232,342.32,217.68,328,200,328z M120,264v-16   c0-16.234,12.148-29.684,27.945-31.75c3.352,7.375,8.742,13.766,15.578,18.379c5.969,4.035,12.75,6.469,19.875,7.184   C183.805,243.82,184,245.871,184,248v16c0,10-4.789,19.574-12.836,25.629C151.048,304.895,120,291.063,120,264z M167.651,309.386   c0.113-0.039,0.236-0.05,0.349-0.089v16.965c-6.635,12.98-25.375,12.961-32,0v-16.965c0.116,0.041,0.243,0.052,0.36,0.092   C146.986,313.038,158.448,312.547,167.651,309.386z M200,272h-0.763c0.995-5.794,0.763-9.542,0.763-16   C210.527,256,210.571,272,200,272z M104,272c-10.527,0-10.571-16,0-16c0,6.474-0.233,10.197,0.763,16H104z M408,328h-16v-28.313   c1.293-1.165,2.509-2.397,3.661-3.688H416c8.836,0,16-7.164,16-16v-40c0-39.765-32.235-72-72-72s-72,32.235-72,72v40   c0,8.836,7.164,16,16,16h20.338c1.152,1.29,2.368,2.521,3.662,3.685V328h-16c-17.68,0-32,14.32-32,32v64c0,8.8,7.2,16,16,16h16v-32   c0-4.4,3.6-8,8-8s8,3.6,8,8v32h64v-32c0-4.4,3.6-8,8-8s8,3.6,8,8v32h16c8.8,0,16-7.2,16-16v-64C440,342.32,425.68,328,408,328z    M349.914,294.318C336.731,290.079,328,277.506,328,264v-16c0-16.234,12.148-29.684,27.945-31.75   c3.352,7.375,8.742,13.766,15.578,18.379c5.969,4.035,12.75,6.469,19.875,7.184C391.805,243.82,392,245.871,392,248v16   c0,10-4.789,19.574-12.836,25.629C370.926,295.881,359.664,297.444,349.914,294.318z M344,309.297   c0.116,0.041,0.243,0.052,0.36,0.092c9.163,3.147,20.73,3.624,31.292-0.003c0.113-0.039,0.236-0.05,0.349-0.089v16.371   c-2.859,4.609-9.727,16.363-16,32.313c-6.273-15.949-13.141-27.703-16-32.313V309.297z M302.081,129.596l-32.5,32.855   c-7.318,7.398-19.204,7.398-26.522,0l-32.5-32.855c-11.85-11.979-13.889-31.229-3.614-44.605   c12.415-16.161,35.529-17.243,49.375-3.245c13.847-13.998,36.961-12.917,49.376,3.245   C315.97,98.366,313.93,117.617,302.081,129.596z" />
	</g>
</svg>
